<?xml version="1.0" standalone="no"?>
<!DOCTYPE svg PUBLIC "-//W3C//DTD SVG 20010904//EN"
 "http://www.w3.org/TR/2001/REC-SVG-20010904/DTD/svg10.dtd">
<svg version="1.0" xmlns="http://www.w3.org/2000/svg"
 width="307.000000pt" height="202.000000pt" viewBox="0 0 307.000000 202.000000"
 preserveAspectRatio="xMidYMid meet">

<g transform="translate(0.000000,202.000000) scale(0.100000,-0.100000)"
fill="#000000" stroke="none">
<path d="M1585 1790 c3 -5 15 -10 26 -10 11 0 30 -5 42 -12 12 -7 55 -13 94
-14 68 -1 103 -13 103 -35 0 -5 -12 -9 -26 -9 -16 0 -23 -4 -18 -11 4 -7 23
-9 51 -5 52 7 123 -23 123 -52 0 -10 13 -21 33 -28 17 -6 40 -14 50 -19 24
-10 23 20 -3 43 -11 9 -29 25 -41 35 -11 10 -18 25 -15 32 6 16 -146 68 -246
85 -82 13 -181 13 -173 0z"/>
<path d="M1375 1693 c-30 -16 -45 -31 -45 -45 0 -5 26 -8 58 -8 43 0 67 -6 97
-25 35 -22 85 -33 85 -20 0 2 -7 23 -16 45 -12 29 -23 42 -43 45 -14 3 -40 10
-57 15 -39 13 -43 12 -79 -7z"/>
<path d="M2100 1606 c4 -27 20 -62 43 -92 20 -27 47 -69 61 -94 36 -67 98
-132 150 -158 51 -26 66 -23 66 14 0 13 6 33 12 44 11 18 6 27 -48 82 -34 35
-64 70 -67 80 -8 24 -157 148 -178 148 -10 0 -21 5 -24 10 -14 23 -21 7 -15
-34z"/>
<path d="M1300 1584 c1 -11 71 -44 93 -44 35 0 17 28 -20 32 -21 3 -46 8 -55
12 -10 5 -18 4 -18 0z"/>
<path d="M1195 1540 c-18 -7 -19 -8 -3 -15 38 -15 2 -26 -80 -25 l-87 2 -51
-49 c-28 -26 -59 -61 -69 -76 l-18 -28 38 22 38 23 19 -24 c14 -18 18 -34 14
-58 -3 -18 0 -44 6 -57 8 -18 8 -40 -2 -84 -15 -73 -4 -112 48 -173 19 -24 33
-35 29 -25 -12 32 15 17 76 -45 94 -94 104 -98 230 -98 96 0 114 -3 164 -26
54 -26 57 -26 70 -8 13 17 15 17 41 2 30 -18 40 -51 22 -73 -8 -9 -9 -29 -5
-55 6 -34 15 -47 53 -76 26 -19 72 -41 102 -50 94 -28 113 -58 126 -201 8 -87
32 -133 69 -133 22 0 25 3 19 24 -9 38 14 94 52 122 19 15 34 35 34 47 0 12
11 32 24 46 31 33 114 227 127 295 11 63 -2 145 -27 163 -12 9 -29 11 -54 6
-19 -5 -55 -7 -80 -6 -89 4 -225 19 -237 26 -6 4 -35 -2 -63 -13 -28 -11 -62
-20 -76 -20 -38 0 -64 -18 -64 -45 0 -25 -8 -29 -70 -40 -31 -5 -37 -2 -55 25
-16 25 -27 30 -58 30 -34 0 -40 4 -53 35 -8 19 -16 35 -18 35 -2 0 -13 -16
-25 -35 -23 -40 -47 -44 -84 -15 -52 41 -39 150 17 150 13 0 26 7 30 15 7 20
75 20 104 -1 26 -18 26 -17 8 27 -10 24 -11 40 -4 59 5 14 14 48 19 75 13 69
49 155 65 155 7 0 16 5 19 11 4 6 1 10 -6 8 -8 -1 -25 -1 -37 0 -24 1 -23 1 8
41 18 22 30 46 27 54 -8 21 -118 32 -132 13 -7 -10 -17 -12 -32 -6 -31 11 -36
-2 -22 -56 14 -54 8 -63 -25 -41 -14 9 -45 16 -70 16 -56 0 -62 15 -31 74 13
25 21 47 17 49 -19 11 -59 14 -77 7z"/>
<path d="M1590 1445 c0 -17 9 -19 28 -6 11 7 10 10 -3 15 -23 9 -25 8 -25 -9z"/>
<path d="M1669 1003 c-13 -16 -12 -17 4 -4 16 13 21 21 13 21 -2 0 -10 -8 -17
-17z"/>
<path d="M1495 990 c-7 -12 45 -12 90 0 25 6 20 8 -27 9 -31 0 -60 -3 -63 -9z"/>
</g>
</svg>
